<?xml version="1.0" standalone="no"?>
<!DOCTYPE svg PUBLIC "-//W3C//DTD SVG 20010904//EN"
 "http://www.w3.org/TR/2001/REC-SVG-20010904/DTD/svg10.dtd">
<svg version="1.0" xmlns="http://www.w3.org/2000/svg"
 width="1920.000000pt" height="1080.000000pt" viewBox="0 0 1920.000000 1080.000000"
 preserveAspectRatio="xMidYMid meet">

<g transform="translate(0.000000,1080.000000) scale(0.100000,-0.100000)"
fill="#000000" stroke="none">
<path d="M3440 10789 c0 -13 -58 -69 -71 -69 -5 0 -9 -9 -9 -20 0 -11 -7 -20
-15 -20 -8 0 -19 -9 -25 -20 -6 -11 -17 -20 -25 -20 -8 0 -15 -4 -15 -8 0 -5
-18 -18 -40 -31 -22 -12 -40 -28 -40 -34 0 -7 -18 -21 -40 -31 -22 -11 -40
-25 -40 -33 0 -7 -8 -17 -17 -20 -9 -4 -24 -14 -33 -22 -10 -9 -34 -29 -55
-46 -21 -16 -48 -39 -61 -50 -51 -45 -65 -55 -79 -55 -17 0 -27 -15 -31 -47
-1 -14 3 -23 12 -23 7 0 37 -11 66 -24 71 -33 335 -116 369 -116 10 0 21 -4
24 -10 3 -5 20 -10 36 -10 17 0 39 -5 51 -11 28 -15 63 -4 76 26 6 14 18 25
26 25 7 0 16 9 19 20 3 11 12 20 21 20 9 0 16 7 16 15 0 8 13 23 28 33 43 26
92 69 92 81 0 6 7 11 15 11 8 0 20 9 27 20 7 11 18 20 25 20 6 0 13 3 15 8 3
7 47 47 161 147 31 28 94 85 140 128 45 43 98 91 117 105 19 15 46 37 60 50
l25 22 -413 0 c-293 0 -412 -3 -412 -11z"/>
<path d="M9280 10787 c0 -24 57 -67 89 -67 35 0 71 -30 71 -60 0 -12 7 -20 18
-20 19 -1 62 -33 62 -48 0 -5 51 -9 117 -9 82 1 118 -3 121 -11 2 -7 21 -12
42 -12 21 0 40 -5 42 -12 3 -8 11 -9 24 -3 18 8 18 9 -3 12 -43 8 -23 21 40
27 118 11 163 21 175 40 17 26 68 42 120 38 28 -2 52 -8 52 -13 0 -5 35 -9 78
-9 66 0 83 4 103 21 19 17 34 20 81 17 32 -2 58 0 58 5 0 4 16 7 35 7 24 0 35
-5 35 -15 0 -11 11 -15 36 -15 19 0 33 -4 30 -8 -2 -4 4 -9 15 -9 10 -1 19 3
19 8 0 6 -4 7 -10 4 -5 -3 -10 -4 -10 -1 0 2 16 14 35 26 19 12 33 26 29 31
-3 5 0 9 5 9 6 0 11 -6 11 -14 0 -8 8 -14 19 -13 11 0 17 6 14 14 -5 14 12 18
60 14 15 -1 27 2 27 7 0 10 16 13 143 28 47 5 57 10 57 25 0 18 -27 19 -920
19 -731 0 -920 -3 -920 -13z"/>
<path d="M11140 10791 c0 -5 12 -19 26 -30 25 -20 39 -21 230 -21 175 0 204 2
204 15 0 12 16 15 80 15 64 0 80 3 80 15 0 13 -41 15 -310 15 -184 0 -310 -4
-310 -9z"/>
<path d="M11840 10780 c0 -21 17 -19 55 7 18 12 16 13 -18 13 -30 0 -37 -4
-37 -20z"/>
<path d="M6205 8997 c-22 -6 -44 -16 -48 -23 -4 -8 -14 -14 -21 -14 -7 0 -18
-11 -24 -25 -6 -14 -16 -25 -22 -25 -5 0 -22 -13 -37 -29 -16 -15 -38 -31 -50
-35 -11 -4 -28 -17 -36 -29 -22 -34 -85 -97 -97 -97 -5 0 -10 -7 -10 -15 0 -8
-4 -15 -10 -15 -5 0 -40 -29 -77 -65 -37 -36 -72 -65 -78 -65 -7 0 -17 -11
-23 -25 -6 -14 -16 -25 -22 -25 -15 0 -50 -38 -50 -53 0 -8 -11 -19 -25 -25
-14 -6 -25 -16 -25 -22 0 -5 -7 -10 -15 -10 -8 0 -15 -6 -15 -13 0 -13 -59
-53 -72 -49 -5 1 -8 -9 -8 -23 0 -14 -3 -25 -8 -25 -4 0 -19 -11 -34 -24 -14
-14 -28 -22 -31 -19 -3 3 -20 -16 -38 -41 -18 -25 -36 -46 -41 -46 -4 0 -8 -9
-8 -20 0 -11 -4 -20 -10 -20 -5 0 -18 -20 -29 -45 -11 -25 -24 -45 -29 -45
-13 0 -52 -36 -52 -48 0 -5 -18 -17 -39 -25 -58 -24 -102 -9 -124 41 -9 21
-28 44 -42 50 -14 6 -25 16 -25 22 0 21 -28 9 -56 -25 -16 -19 -48 -49 -71
-67 -24 -17 -43 -38 -43 -45 0 -7 -4 -13 -10 -13 -5 0 -40 -30 -77 -66 -37
-36 -75 -70 -85 -75 -9 -5 -25 -23 -35 -39 -9 -17 -22 -30 -28 -30 -11 -1 -55
-35 -55 -44 0 -10 -107 -113 -124 -119 -9 -4 -19 -13 -22 -22 -9 -23 -106
-115 -121 -115 -7 0 -21 -16 -30 -35 -9 -19 -20 -32 -23 -30 -11 7 -60 -34
-60 -50 0 -7 -15 -23 -32 -34 -76 -49 -98 -67 -103 -83 -4 -10 -12 -18 -19
-18 -7 0 -21 -9 -31 -20 -10 -11 -29 -20 -42 -20 -21 0 -23 -4 -23 -50 0 -27
4 -50 9 -50 5 0 16 -28 24 -63 14 -55 15 -70 2 -116 -7 -29 -15 -54 -17 -56
-2 -1 -17 -10 -35 -19 -39 -20 -82 -20 -107 -1 -11 8 -30 15 -42 15 -13 0 -26
5 -29 10 -3 6 -18 10 -33 10 -15 0 -36 7 -47 16 -12 9 -30 12 -45 9 -18 -4
-31 0 -43 13 -11 12 -26 17 -41 15 -13 -3 -30 2 -39 11 -8 9 -31 16 -50 16
-20 0 -37 5 -39 11 -4 11 -49 24 -133 39 -27 5 -51 14 -53 20 -2 5 -12 10 -23
10 -28 0 -96 75 -103 115 -4 18 -13 38 -21 45 -9 8 -15 30 -15 59 0 26 -4 51
-10 57 -5 5 -11 21 -13 34 -5 32 -28 37 -45 9 -11 -17 -11 -20 0 -13 13 8 -1
-12 -32 -46 -8 -9 -26 -31 -40 -48 -14 -17 -31 -31 -37 -32 -7 0 -13 -4 -13
-10 0 -5 -6 -10 -13 -10 -7 0 -21 -11 -31 -24 -10 -14 -31 -28 -47 -31 -16 -4
-31 -11 -34 -16 -4 -5 -15 -9 -26 -9 -23 0 -57 -32 -61 -57 -2 -10 -7 -21 -13
-25 -6 -5 -4 -8 5 -8 8 0 1 -11 -18 -27 l-33 -28 17 -35 c28 -56 28 -56 116
-61 21 -2 40 -9 42 -16 6 -16 42 -17 52 -2 4 8 50 9 156 4 137 -7 151 -9 171
-30 29 -29 31 -45 7 -40 -11 2 -20 0 -20 -6 0 -5 25 -9 55 -9 46 0 56 -3 67
-22 7 -13 13 -32 13 -43 0 -11 7 -20 15 -20 8 -1 14 -5 13 -11 -1 -6 13 -8 33
-6 35 4 89 -21 79 -38 -3 -4 1 -15 9 -23 8 -8 12 -17 9 -21 -4 -3 3 -6 15 -6
12 0 22 5 22 10 0 6 32 10 75 10 49 0 75 -4 75 -11 0 -19 98 -4 130 19 16 12
30 17 32 11 2 -6 21 -2 48 10 45 20 85 59 182 179 l51 64 -9 77 c-6 51 -6 82
1 90 28 36 69 71 81 71 8 0 14 4 14 10 0 5 16 17 36 26 19 9 33 22 31 28 -3 7
7 13 23 14 18 1 44 17 70 43 28 28 45 38 53 31 16 -12 63 -21 74 -13 5 3 17
19 26 34 11 17 24 26 33 23 14 -5 76 22 82 37 2 4 9 7 15 7 7 0 18 9 25 20 7
11 18 20 25 20 7 0 35 20 62 46 28 25 68 59 89 77 22 18 50 42 63 55 13 12 28
22 33 22 6 0 10 4 10 9 0 5 10 11 23 14 45 11 112 39 119 50 6 9 10 9 16 0 9
-15 191 -21 215 -7 11 6 18 14 18 17 -3 18 0 21 9 7 19 -31 19 -1 -1 51 -23
60 -32 215 -13 227 6 4 17 22 25 40 8 18 22 35 33 38 19 6 182 -21 224 -37 13
-5 39 -9 58 -9 30 0 97 -16 154 -37 18 -7 27 -10 60 -16 14 -3 38 -10 53 -16
16 -6 55 -11 88 -11 47 0 63 4 77 20 9 11 26 31 37 43 11 13 33 39 48 58 27
31 181 198 287 311 58 61 70 75 70 85 0 5 20 24 44 43 25 19 54 52 66 73 12
20 27 37 34 37 7 0 19 11 26 25 7 14 17 25 22 25 4 0 8 5 8 11 0 6 25 35 56
65 53 52 55 56 38 69 -18 14 -18 14 4 15 12 0 22 4 22 10 0 5 15 24 34 42 62
61 52 108 -23 108 -36 0 -91 19 -91 31 0 4 -36 12 -80 20 -44 7 -80 16 -80 20
0 3 -23 10 -52 13 -28 4 -59 11 -67 16 -33 17 -116 26 -156 17z m435 -221 c0
-13 -7 -29 -15 -36 -8 -7 -12 -17 -9 -22 3 -5 -25 -40 -64 -77 -38 -38 -72
-77 -74 -87 -2 -10 -6 -17 -10 -14 -10 8 -48 -32 -48 -52 0 -11 -7 -18 -19
-18 -26 0 -71 -38 -71 -60 0 -11 -10 -22 -22 -26 -29 -8 -59 -34 -52 -45 2 -5
-13 -20 -36 -35 -22 -15 -40 -30 -40 -34 0 -5 -22 -24 -50 -44 -27 -20 -50
-41 -50 -46 0 -14 -51 -59 -67 -60 -7 0 -13 -9 -13 -20 0 -11 -5 -20 -11 -20
-14 0 -69 52 -69 66 0 10 83 94 93 94 10 0 67 59 67 69 0 6 4 11 9 11 13 0 71
56 71 69 0 6 4 11 9 11 13 0 71 56 71 69 0 6 4 11 9 11 13 0 71 56 71 69 0 6
7 11 16 11 22 0 64 41 64 63 0 10 8 17 20 17 11 0 23 6 26 14 3 8 19 19 35 25
16 5 29 16 29 24 0 8 19 33 42 56 49 47 88 55 88 17z m20 -76 c-6 -11 -13 -20
-15 -20 -3 0 -5 9 -5 20 0 11 7 20 15 20 13 0 14 -4 5 -20z"/>
<path d="M4934 8984 c-10 -8 -14 -13 -7 -10 6 4 14 2 17 -3 4 -5 -2 -11 -11
-14 -14 -3 -11 -6 9 -11 33 -9 70 0 50 13 -7 4 -10 15 -6 24 8 22 -25 23 -52
1z"/>
<path d="M6998 8660 c-7 -11 -17 -20 -23 -20 -6 0 -16 -13 -23 -30 -8 -16 -20
-30 -28 -30 -8 0 -14 -5 -14 -11 0 -14 -58 -72 -88 -88 -12 -6 -22 -18 -22
-26 0 -8 -9 -19 -19 -25 -11 -5 -22 -18 -25 -27 -3 -10 -26 -34 -50 -53 -25
-19 -47 -43 -50 -54 -2 -10 -9 -15 -15 -11 -6 3 -11 1 -11 -6 0 -6 -20 -29
-45 -51 -25 -22 -45 -46 -45 -54 0 -8 -6 -14 -12 -14 -7 -1 -24 -15 -38 -33
-14 -18 -64 -72 -112 -120 -49 -48 -88 -92 -88 -96 0 -4 -11 -14 -25 -21 -14
-7 -25 -19 -25 -27 0 -17 -31 -53 -47 -53 -7 0 -15 -11 -19 -24 -3 -14 -23
-37 -45 -52 -21 -15 -39 -30 -39 -34 0 -3 7 -27 16 -53 15 -45 18 -47 53 -47
25 0 40 6 48 19 6 10 23 19 36 19 44 0 94 22 108 48 7 14 27 31 45 39 18 7 37
26 45 44 8 17 16 31 19 31 11 0 60 48 60 59 0 6 18 22 40 36 22 14 40 32 40
40 0 9 8 19 17 22 21 8 63 48 63 60 0 4 15 21 33 38 19 16 37 38 40 48 4 11
16 21 27 24 11 3 20 9 20 15 0 20 78 98 98 98 6 0 12 9 15 21 3 11 15 23 26
26 12 3 21 9 21 14 0 4 13 22 29 39 16 18 35 44 42 58 8 15 21 32 29 39 11 9
15 31 14 90 -3 120 -42 188 -76 133z"/>
<path d="M4110 8394 c-14 -10 -31 -24 -38 -31 -7 -7 -18 -13 -23 -13 -5 0 -9
-7 -9 -15 0 -8 -9 -15 -20 -15 -12 0 -25 -10 -31 -24 -6 -13 -29 -38 -50 -56
-21 -17 -39 -37 -39 -43 0 -7 -12 -18 -28 -24 -15 -7 -36 -27 -46 -43 -10 -17
-28 -36 -40 -41 -12 -6 -26 -20 -31 -32 -6 -12 -20 -23 -32 -25 -13 -2 -23 -7
-23 -11 0 -16 -67 -81 -83 -81 -9 0 -17 -4 -17 -10 0 -5 -7 -10 -15 -10 -18 0
-65 -47 -65 -65 0 -8 -6 -15 -14 -15 -20 0 -76 -55 -76 -74 0 -17 -53 -49 -64
-39 -3 4 -6 1 -6 -7 0 -12 -50 -62 -104 -105 -13 -10 -23 -22 -20 -26 2 -4 -3
-12 -11 -19 -8 -7 -15 -9 -15 -5 0 4 -11 -4 -25 -19 -13 -14 -27 -26 -30 -26
-11 0 -115 -107 -115 -118 0 -7 13 -12 29 -12 37 0 146 -27 189 -46 18 -9 49
-18 68 -21 18 -3 34 -9 34 -12 0 -4 35 -13 78 -21 42 -7 79 -16 82 -20 3 -3
40 -15 83 -24 43 -10 84 -25 92 -32 23 -23 43 -16 55 21 13 38 88 125 108 125
7 0 12 6 12 13 0 13 15 28 128 134 41 37 84 74 98 81 13 7 24 17 24 22 0 6 8
18 19 28 10 9 50 46 88 82 38 36 83 76 101 90 18 14 35 33 38 42 3 10 10 18
15 18 10 0 32 16 52 39 7 7 28 30 47 50 20 20 42 48 50 64 7 15 17 27 22 27 5
0 26 18 48 40 22 22 46 40 54 40 7 0 16 7 20 15 3 8 12 15 21 15 8 0 15 7 15
15 0 7 6 18 14 22 11 6 12 11 3 23 -13 16 -92 60 -109 60 -10 0 -197 56 -334
100 -95 31 -144 35 -174 14z"/>
<path d="M440 8231 c0 -5 -18 -12 -40 -16 -22 -4 -62 -18 -87 -32 -46 -24 -59
-36 -111 -100 -14 -18 -28 -31 -30 -28 -3 3 -19 -14 -36 -37 -17 -24 -55 -65
-83 -93 l-53 -50 0 -269 c0 -252 1 -268 17 -261 10 4 32 10 48 12 54 9 135 52
145 78 5 14 17 25 27 25 9 0 32 14 49 31 30 29 37 31 110 32 52 0 79 -4 82
-12 6 -17 67 -40 90 -34 10 2 26 -3 35 -12 9 -9 21 -13 27 -10 5 3 10 2 10 -2
0 -5 17 -10 37 -11 21 -2 40 -7 44 -13 3 -6 40 -10 82 -10 43 0 77 -4 77 -9 0
-14 60 -30 111 -30 27 0 49 -4 49 -9 0 -11 231 -9 248 3 8 4 37 10 65 12 29 2
78 6 110 10 43 5 57 3 57 -6 0 -10 15 -11 58 -7 41 4 66 2 86 -8 24 -13 30
-13 50 0 13 9 53 22 90 29 41 9 78 24 97 40 17 14 34 26 37 26 4 0 20 21 37
48 16 26 36 53 45 59 10 9 12 15 4 20 -13 9 -15 43 -2 43 4 0 8 9 8 20 0 25
-30 27 -30 3 -1 -16 -2 -16 -13 -3 -7 8 -24 21 -39 29 -16 8 -28 17 -28 21 0
4 -18 13 -40 20 -22 7 -40 17 -40 22 0 4 -13 8 -28 8 -15 0 -33 5 -40 12 -9 9
-12 7 -12 -10 0 -19 -5 -22 -39 -22 -29 0 -40 -5 -43 -17 -2 -13 -7 -11 -28
10 -14 15 -31 27 -37 27 -7 0 -13 9 -13 19 0 11 -4 23 -10 26 -17 11 -11 35
10 35 13 0 17 5 14 14 -6 16 -41 13 -58 -4 -5 -5 -19 -10 -31 -10 -11 0 -26
-9 -32 -19 -16 -26 -70 -25 -86 1 -7 10 -17 18 -23 18 -6 0 -28 25 -50 55 -25
35 -51 58 -71 65 -18 6 -33 18 -33 26 0 8 -7 14 -15 14 -8 0 -15 5 -15 10 0 6
-4 10 -10 10 -5 0 -24 15 -42 34 -20 20 -51 39 -78 46 -25 7 -57 18 -72 26
-14 8 -38 14 -52 14 -14 0 -26 5 -26 10 0 6 -20 10 -45 10 -25 0 -45 4 -45 9
0 5 -15 13 -32 16 -18 4 -37 11 -43 15 -11 9 -65 19 -143 27 -46 4 -57 2 -77
-17 -27 -26 -55 -21 -55 10 0 13 -7 20 -20 20 -11 0 -20 -4 -20 -9z m744 -256
c9 -13 16 -31 16 -39 0 -8 6 -17 13 -19 17 -8 -38 -57 -63 -57 -28 0 -70 40
-70 66 0 13 5 35 12 49 16 35 69 35 92 0z"/>
<path d="M19135 8133 c-111 -26 -210 -45 -269 -50 -33 -3 -66 -11 -73 -19 -8
-8 -24 -14 -36 -15 -52 -1 -106 -11 -166 -29 -35 -11 -74 -20 -86 -20 -13 0
-25 -4 -27 -8 -4 -12 -245 -72 -285 -72 -18 0 -33 -4 -33 -10 0 -5 -15 -10
-33 -10 -18 0 -37 -4 -42 -9 -6 -4 -45 -14 -88 -21 -43 -7 -80 -17 -83 -21 -3
-5 -20 -9 -38 -9 -17 0 -37 -5 -42 -10 -6 -6 -35 -13 -65 -16 -30 -3 -71 -12
-92 -20 -20 -8 -52 -14 -70 -14 -18 0 -38 -5 -43 -10 -6 -6 -33 -12 -60 -14
-27 -2 -56 -6 -64 -8 -62 -22 -125 -31 -265 -38 -88 -4 -176 -13 -195 -19 -19
-6 -68 -11 -107 -11 -55 0 -73 -3 -73 -14 0 -9 -21 -15 -72 -19 -40 -4 -107
-14 -148 -23 -41 -8 -115 -18 -165 -21 -49 -3 -93 -10 -97 -16 -4 -7 -16 -6
-38 3 -26 11 -33 11 -40 0 -7 -11 -14 -11 -40 0 -20 8 -34 10 -38 4 -11 -16
-108 -33 -222 -39 -221 -13 -256 -16 -305 -30 -27 -7 -76 -16 -107 -19 -32 -3
-77 -10 -100 -15 -24 -6 -90 -15 -148 -21 -58 -7 -130 -17 -161 -24 -30 -8
-79 -11 -107 -8 -35 3 -52 1 -52 -7 0 -6 -14 -11 -30 -11 -17 0 -38 -4 -48 -9
-29 -15 -115 -31 -155 -29 -21 1 -43 -4 -49 -10 -7 -7 -22 -12 -34 -12 -27 0
-114 -48 -121 -66 -3 -8 -14 -14 -24 -14 -10 0 -19 -4 -19 -10 0 -6 27 -10 60
-10 33 0 60 4 60 10 0 6 28 10 63 10 35 0 98 9 140 19 42 11 113 22 159 25 46
3 115 13 153 22 78 18 107 21 460 59 138 14 286 31 330 36 44 6 125 14 180 19
55 5 120 14 145 21 25 6 73 11 108 10 37 -1 62 3 62 9 0 7 26 10 68 8 82 -3
287 10 361 23 30 5 95 9 145 9 50 0 107 4 126 9 19 5 76 14 125 21 50 6 100
16 112 20 12 5 23 5 25 1 4 -9 311 9 318 19 3 4 79 10 170 13 91 4 215 13 275
21 61 8 139 17 175 21 103 8 150 17 150 26 0 4 15 15 34 24 19 9 37 23 40 31
4 10 2 13 -7 8 -6 -4 -3 2 7 14 24 27 36 28 36 2 0 -17 7 -20 40 -20 29 0 40
-4 40 -15 0 -11 -11 -15 -40 -15 -22 0 -40 -4 -40 -10 0 -12 169 -13 189 -1
11 7 10 11 -5 20 -18 10 -18 10 1 12 92 6 135 5 135 -2 0 -14 27 -10 44 6 8 8
19 15 25 15 6 0 11 6 11 14 0 8 9 21 20 29 10 7 24 25 29 40 6 15 15 27 20 27
5 0 11 9 14 20 5 18 14 20 84 22 l78 2 -85 6 -85 6 83 2 82 2 0 110 c0 61 -1
109 -2 109 -2 -1 -30 -8 -63 -16z m-255 -333 c0 -29 -4 -40 -15 -40 -11 0 -15
11 -15 40 0 29 4 40 15 40 11 0 15 -11 15 -40z"/>
<path d="M8380 7640 c0 -73 -4 -120 -10 -120 -5 0 -10 -18 -10 -39 0 -22 -5
-41 -10 -43 -11 -3 -3 -166 25 -483 15 -172 22 -227 24 -177 2 40 21 23 21
-18 0 -33 3 -40 20 -40 16 0 20 -7 20 -35 0 -19 3 -35 8 -35 4 0 5 -25 4 -55
-3 -36 0 -55 7 -55 7 0 14 8 18 18 3 9 34 45 69 80 58 58 65 62 108 62 44 0
46 -1 46 -29 0 -25 4 -30 28 -33 26 -3 27 -5 30 -77 3 -73 3 -74 49 -117 25
-24 54 -44 64 -44 15 0 19 -8 19 -40 0 -36 3 -40 25 -40 l25 0 0 -110 0 -110
42 0 c23 0 39 -3 35 -6 -6 -6 16 -34 27 -34 3 0 12 16 20 35 8 19 22 35 31 35
9 0 26 10 38 23 27 29 98 59 202 87 43 11 91 30 106 41 16 11 59 34 96 50 189
84 229 108 249 149 11 23 27 40 39 42 18 3 20 10 18 68 -1 36 -2 67 -3 70 0 3
-5 -2 -10 -10 -5 -8 -10 -32 -10 -52 0 -21 -4 -38 -10 -38 -5 0 -10 18 -10 40
0 22 -4 40 -10 40 -5 0 -10 -18 -10 -40 0 -33 -3 -40 -20 -40 -11 0 -20 6 -20
13 0 15 -54 67 -69 67 -6 0 -11 13 -11 28 0 15 -5 33 -12 40 -9 9 -6 12 15 12
24 0 27 4 27 34 0 19 5 36 10 38 16 5 -32 88 -50 88 -8 0 -26 18 -40 40 -13
22 -31 40 -40 40 -8 0 -26 12 -39 25 -13 14 -29 25 -37 25 -8 0 -14 7 -14 15
0 8 -4 15 -10 15 -9 0 -33 19 -87 68 -13 12 -29 20 -34 17 -5 -4 -9 1 -9 9 0
18 -46 66 -63 66 -7 0 -29 16 -48 36 -18 19 -54 45 -79 57 -25 12 -60 37 -79
55 -19 17 -37 32 -41 32 -15 0 -33 81 -24 108 10 29 -3 49 -45 72 -12 6 -21
17 -21 25 0 8 -7 15 -15 15 -29 0 -52 56 -47 110 4 46 3 50 -17 50 -20 0 -21
-5 -21 -94 0 -53 4 -98 10 -101 6 -3 10 -26 10 -51 0 -24 5 -44 10 -44 6 0 10
-25 10 -55 0 -30 -4 -55 -10 -55 -5 0 -10 5 -10 12 0 9 -3 9 -12 0 -7 -7 -43
-12 -92 -12 -74 0 -83 3 -106 27 l-25 26 -7 -29 c-6 -23 -6 -21 -5 14 2 23 0
42 -3 42 -8 0 -40 67 -40 85 0 25 -31 45 -71 45 -39 0 -39 0 -39 -40 l0 -40
-40 0 c-36 0 -40 -2 -40 -25 0 -14 -3 -25 -8 -25 -4 0 -6 -18 -4 -40 3 -27 0
-40 -8 -40 -15 0 -4 153 11 158 5 2 9 21 9 43 0 21 5 39 10 39 6 0 10 20 10
44 0 25 -4 48 -10 51 -5 3 -10 19 -10 36 0 16 -4 29 -10 29 -6 0 -10 -47 -10
-120z m1300 -811 c0 -5 -4 -9 -10 -9 -5 0 -10 7 -10 16 0 8 5 12 10 9 6 -3 10
-10 10 -16z"/>
<path d="M8480 7616 c0 -9 7 -16 16 -16 9 0 14 5 12 12 -6 18 -28 21 -28 4z"/>
<path d="M4240 7145 c0 -14 5 -25 10 -25 6 0 10 11 10 25 0 14 -4 25 -10 25
-5 0 -10 -11 -10 -25z"/>
<path d="M13900 7015 c-7 -8 -19 -15 -26 -15 -8 0 -22 -4 -32 -9 -9 -5 -26
-13 -37 -17 -18 -7 -17 -8 8 -12 16 -2 27 -10 27 -18 0 -18 22 -14 28 4 2 7
-3 12 -12 12 -9 0 -16 5 -16 10 0 6 18 10 40 10 36 0 40 3 40 25 0 29 -3 31
-20 10z"/>
<path d="M13685 6928 c-27 -5 -58 -10 -67 -11 -21 -2 -23 -8 -6 -25 9 -9 0
-12 -40 -12 -40 0 -52 -4 -52 -15 0 -11 -11 -15 -35 -15 -24 0 -45 -8 -63 -25
-15 -14 -35 -25 -44 -25 -10 0 -18 -5 -18 -10 0 -6 -17 -18 -37 -28 -21 -9
-49 -27 -63 -40 -14 -12 -33 -25 -42 -28 -10 -3 -18 -10 -18 -15 0 -5 -8 -9
-18 -9 -25 0 -112 -79 -112 -101 0 -9 -7 -22 -15 -29 -8 -7 -15 -19 -15 -26 0
-8 -11 -20 -25 -26 -14 -6 -25 -18 -25 -26 0 -9 -15 -28 -32 -43 -27 -23 -31
-30 -20 -41 11 -11 16 -10 26 5 7 9 21 17 30 17 9 0 16 8 16 18 1 25 35 62 58
62 11 0 25 7 32 15 7 8 16 12 22 9 5 -3 27 13 48 35 32 33 47 41 75 41 24 0
35 5 35 14 0 11 15 16 52 18 70 4 78 28 9 28 -28 0 -51 5 -51 10 0 6 16 10 35
10 24 0 35 5 35 15 0 11 12 15 51 15 46 0 51 2 60 29 13 35 40 50 104 53 l50
3 3 53 c3 48 5 52 28 52 15 0 24 -6 24 -15 0 -23 19 -18 29 9 5 13 19 26 30
29 12 3 21 12 21 21 0 18 -3 18 -75 4z"/>
<path d="M9760 6680 c0 -29 4 -40 15 -40 9 0 15 9 15 23 0 18 2 19 10 7 8 -13
10 -12 10 3 0 20 -22 47 -39 47 -6 0 -11 -18 -11 -40z"/>
<path d="M7600 6634 c0 -12 -10 -25 -25 -32 -14 -6 -25 -16 -25 -21 0 -5 -26
-22 -57 -36 -32 -15 -70 -33 -86 -40 -25 -12 -33 -11 -80 12 -28 14 -60 30
-69 35 -10 4 -27 8 -38 8 -11 0 -20 6 -20 14 0 13 -41 26 -82 26 -27 0 -32
-24 -14 -61 9 -18 16 -37 16 -43 1 -6 19 -24 40 -41 21 -16 39 -36 40 -42 0
-7 6 -13 13 -13 14 -1 67 -81 67 -103 0 -8 6 -20 14 -26 10 -8 12 -24 9 -51
-3 -22 -1 -45 5 -52 5 -7 13 -86 17 -175 l7 -161 -26 -23 c-14 -12 -26 -32
-26 -44 0 -23 -31 -36 -117 -50 -31 -5 -43 -11 -43 -24 0 -19 41 -36 113 -46
26 -4 47 -10 47 -14 0 -4 16 -13 36 -20 56 -20 121 -63 136 -89 7 -13 28 -32
48 -43 73 -40 140 -97 140 -120 0 -9 9 -25 20 -37 11 -12 20 -26 20 -32 0 -5
14 -11 30 -11 17 -1 36 -2 42 -3 14 -1 13 77 -1 82 -4 1 -5 19 -3 38 3 20 0
39 -6 43 -6 4 -11 58 -12 136 -2 142 -12 260 -35 430 -8 61 -15 138 -15 173 0
34 -4 62 -9 62 -5 0 -12 55 -15 123 -9 154 -23 244 -41 271 l-15 20 0 -20z"/>
<path d="M8420 6593 c0 -67 11 -153 20 -153 4 0 6 45 6 100 -1 73 -4 100 -13
100 -9 0 -13 -16 -13 -47z"/>
<path d="M13200 6544 c0 -9 5 -14 12 -12 18 6 21 28 4 28 -9 0 -16 -7 -16 -16z"/>
<path d="M8436 6258 c4 -138 15 -269 34 -428 5 -41 14 -136 21 -210 6 -74 15
-139 20 -144 4 -5 13 2 20 17 7 15 16 27 21 27 4 0 8 4 8 10 0 5 8 19 18 31 9
11 27 33 39 47 13 15 23 37 23 50 0 12 5 22 10 22 15 0 59 50 71 81 6 15 40
47 82 75 86 58 90 62 116 105 31 51 28 59 -24 59 -30 0 -47 5 -51 14 -3 8 -27
25 -52 37 -33 16 -42 24 -29 27 12 2 17 13 17 38 0 19 5 34 10 34 6 0 10 -16
10 -35 0 -19 5 -35 10 -35 6 0 10 18 10 40 0 22 -4 40 -10 40 -5 0 -10 6 -10
13 0 9 -12 11 -40 9 -31 -3 -40 -1 -40 11 0 12 -13 17 -52 19 -30 2 -53 8 -56
16 -2 6 3 12 12 12 9 0 16 5 16 10 0 6 -20 10 -45 10 -36 0 -51 6 -77 31 -18
17 -27 27 -19 23 9 -5 7 2 -5 18 -10 14 -22 24 -26 22 -4 -3 -10 7 -14 21 -15
61 -23 14 -18 -117z m41 40 c-3 -8 -6 -5 -6 6 -1 11 2 17 5 13 3 -3 4 -12 1
-19z"/>
<path d="M12905 6330 c-3 -5 -1 -10 4 -10 6 0 11 5 11 10 0 6 -2 10 -4 10 -3
0 -8 -4 -11 -10z"/>
<path d="M8970 6074 c0 -6 7 -17 15 -24 18 -15 47 3 39 24 -6 15 -54 16 -54 0z"/>
<path d="M11030 5595 c-9 -10 -9 -15 -1 -15 6 0 10 -3 10 -7 -1 -5 -1 -21 0
-36 1 -28 2 -29 54 -25 l52 3 5 -50 c3 -27 12 -61 19 -74 11 -19 11 -25 0 -32
-10 -6 -6 -17 16 -49 39 -56 43 -56 37 0 -3 30 -1 50 6 50 5 0 13 33 17 73 10
99 12 111 24 115 6 2 11 15 11 28 0 23 -3 24 -64 24 -48 0 -65 -4 -70 -15 -7
-19 -26 -20 -26 -1 0 7 -14 16 -31 20 -43 8 -45 8 -59 -9z"/>
<path d="M10750 5481 c-36 -9 -90 -43 -90 -57 0 -7 -5 -14 -11 -16 -6 -2 -10
-12 -8 -21 4 -16 7 -16 42 3 29 16 37 17 37 6 0 -8 -6 -16 -12 -19 -7 -2 -10
-7 -7 -11 10 -10 79 56 79 75 0 10 5 21 10 24 6 4 8 11 5 16 -7 10 -8 10 -45
0z"/>
<path d="M10925 5363 c-5 -54 -4 -78 4 -81 6 -2 11 -23 11 -47 0 -23 6 -55 14
-70 l14 -27 15 23 c19 30 34 199 18 199 -6 0 -11 18 -11 40 0 37 -2 40 -29 40
-28 0 -29 0 -36 -77z"/>
<path d="M11420 5436 c0 -2 6 -16 14 -31 l14 -26 16 23 c23 32 20 38 -14 38
-16 0 -30 -2 -30 -4z"/>
<path d="M10640 5295 c0 -8 5 -15 10 -15 6 0 10 -18 10 -40 0 -22 -4 -40 -10
-40 -5 0 -10 -7 -10 -15 0 -11 12 -15 50 -15 56 0 70 15 70 74 0 29 -4 36 -20
36 -11 0 -20 7 -20 15 0 11 -11 15 -40 15 -29 0 -40 -4 -40 -15z"/>
<path d="M10360 5125 c-12 -25 -26 -47 -31 -51 -5 -3 -9 -14 -9 -25 0 -14 7
-19 28 -19 21 0 24 2 12 10 -8 5 -10 10 -4 10 5 0 14 -4 20 -9 5 -5 21 -7 37
-4 24 5 27 10 27 44 0 27 -4 39 -14 39 -8 0 -17 11 -20 25 -9 36 -21 31 -46
-20z"/>
<path d="M10136 4895 c-15 -8 -35 -15 -42 -15 -8 0 -14 -4 -14 -9 0 -5 -8 -12
-19 -16 -10 -3 -30 -16 -44 -28 -14 -12 -41 -33 -60 -47 -52 -36 -52 -59 -1
-127 24 -32 44 -65 44 -74 0 -9 6 -29 14 -45 8 -16 16 -57 17 -91 3 -74 9 -88
32 -70 13 9 17 29 18 77 1 41 7 74 18 90 9 14 25 42 35 63 11 20 26 37 35 37
9 0 27 12 40 25 19 21 32 25 79 25 30 0 52 3 49 7 -4 3 0 11 9 17 18 13 9 46
-12 46 -8 0 -14 7 -14 16 0 9 -8 24 -18 33 -11 9 -22 28 -26 44 -3 15 -13 27
-20 27 -8 0 -16 4 -18 9 -6 18 -72 22 -102 6z"/>
<path d="M9830 4675 c-7 -9 -10 -18 -7 -21 6 -7 47 18 47 28 0 14 -27 9 -40
-7z"/>
<path d="M9762 4629 c2 -6 8 -10 13 -10 5 0 11 4 13 10 2 6 -4 11 -13 11 -9 0
-15 -5 -13 -11z"/>
<path d="M10530 4549 c0 -5 5 -7 10 -4 6 3 10 8 10 11 0 2 -4 4 -10 4 -5 0
-10 -5 -10 -11z"/>
<path d="M9420 4410 c0 -5 4 -10 9 -10 6 0 13 5 16 10 3 6 -1 10 -9 10 -9 0
-16 -4 -16 -10z"/>
<path d="M9380 4359 c0 -5 5 -7 10 -4 6 3 10 8 10 11 0 2 -4 4 -10 4 -5 0 -10
-5 -10 -11z"/>
<path d="M9350 4192 c-20 -7 -100 -88 -100 -101 0 -6 -11 -11 -24 -11 -13 0
-26 -6 -29 -14 -8 -20 -66 -25 -109 -10 -25 9 -46 10 -65 4 -15 -6 -54 -12
-85 -16 -60 -6 -75 -17 -36 -27 12 -4 19 -9 15 -13 -4 -4 -1 -14 6 -22 7 -9 7
-13 1 -9 -8 4 -11 -16 -11 -66 -1 -60 1 -65 7 -32 l7 40 2 -37 c1 -27 6 -38
16 -38 17 0 18 -4 7 -45 -7 -23 -5 -34 9 -48 11 -12 19 -15 24 -8 3 6 -1 14
-9 17 -33 13 -17 34 24 34 29 0 40 4 40 15 0 8 6 15 13 15 7 0 21 11 31 25 10
14 24 25 30 25 12 0 47 36 41 42 -2 2 7 8 21 15 19 9 24 8 24 -3 0 -19 13 -18
40 6 13 11 27 20 31 20 4 0 9 10 11 23 2 17 11 23 37 25 22 2 35 10 38 22 3
10 15 21 27 24 12 3 37 19 56 37 19 17 45 38 58 46 31 21 28 33 -8 33 -17 0
-41 6 -53 14 -26 17 -66 25 -87 18z"/>
<path d="M8354 3320 c-28 -4 -60 -13 -72 -19 -13 -7 -26 -9 -31 -7 -15 10 -19
-18 -11 -65 12 -61 19 -78 41 -90 11 -5 19 -14 19 -20 0 -12 49 -59 62 -59 5
0 12 8 15 18 4 9 10 19 13 22 4 3 19 24 34 47 40 65 35 187 -8 182 -6 -1 -34
-5 -62 -9z"/>
<path d="M16695 2242 c-1 -2 -1280 -5 -2841 -8 -1562 -2 -2866 -6 -2899 -9
-61 -4 -132 -24 -195 -53 -49 -23 -140 -119 -173 -183 -31 -60 -36 -139 -17
-266 5 -38 19 -192 30 -343 12 -151 25 -331 31 -400 9 -106 15 -188 20 -260 1
-8 8 -89 16 -180 8 -91 16 -194 18 -230 6 -114 15 -234 21 -272 l6 -38 534 0
534 0 -4 23 c-3 12 -8 58 -11 102 -4 44 -13 136 -21 205 -8 69 -18 175 -24
236 -5 62 -16 170 -25 240 -9 71 -25 199 -35 284 -11 85 -22 202 -26 260 -3
58 -10 121 -14 140 -5 19 -12 78 -15 130 -7 128 -35 351 -46 372 -11 20 -12
118 -1 135 6 9 228 11 947 10 517 -1 1134 1 1370 5 741 11 2036 23 2139 20 54
-2 138 2 185 8 59 7 108 8 155 1 40 -6 76 -6 86 -1 9 5 223 9 475 11 253 1
611 6 795 10 519 13 1008 15 1020 3 5 -5 17 -48 25 -94 9 -47 22 -103 29 -125
17 -52 26 -85 98 -370 11 -44 31 -116 44 -160 13 -44 32 -121 43 -171 11 -49
28 -107 36 -129 9 -21 23 -70 30 -109 8 -39 21 -96 29 -126 8 -30 25 -93 37
-140 11 -47 25 -94 29 -105 5 -11 12 -36 15 -55 7 -36 31 -120 46 -155 5 -11
6 65 4 175 -3 107 -4 211 -4 230 0 19 2 340 5 713 l4 679 -1251 -4 c-688 -2
-1252 -4 -1254 -6z m-3175 -42 c0 -5 -10 -10 -22 -9 -22 0 -22 1 -3 9 11 5 21
9 23 9 1 1 2 -3 2 -9z m5596 -1066 c-5 -14 -46 -20 -46 -7 0 4 10 18 23 31 18
20 23 21 25 7 2 -9 1 -23 -2 -31z m-8049 -171 c-15 -15 -17 -15 -23 1 -8 21
16 40 30 26 7 -7 4 -16 -7 -27z m73 17 c0 -5 -4 -10 -10 -10 -5 0 -10 5 -10
10 0 6 5 10 10 10 6 0 10 -4 10 -10z m-393 -777 c-3 -10 -5 -4 -5 12 0 17 2
24 5 18 2 -7 2 -21 0 -30z m15 -129 c-2 -55 -12 -54 -12 1 0 27 3 45 7 42 3
-4 6 -23 5 -43z"/>
<path d="M11968 1993 c7 -3 16 -2 19 1 4 3 -2 6 -13 5 -11 0 -14 -3 -6 -6z"/>
<path d="M13085 1825 c-16 -13 -27 -26 -25 -29 3 -2 18 7 34 20 15 14 26 27
24 30 -3 2 -18 -7 -33 -21z"/>
<path d="M12355 1830 c-3 -5 -1 -10 4 -10 6 0 11 5 11 10 0 6 -2 10 -4 10 -3
0 -8 -4 -11 -10z"/>
<path d="M13180 1820 c0 -5 5 -10 10 -10 6 0 10 5 10 10 0 6 -4 10 -10 10 -5
0 -10 -4 -10 -10z"/>
<path d="M12380 1800 c0 -5 5 -10 10 -10 6 0 10 5 10 10 0 6 -4 10 -10 10 -5
0 -10 -4 -10 -10z"/>
<path d="M13215 1800 c3 -5 11 -10 16 -10 6 0 7 5 4 10 -3 6 -11 10 -16 10 -6
0 -7 -4 -4 -10z"/>
<path d="M12321 1704 c0 -11 3 -14 6 -6 3 7 2 16 -1 19 -3 4 -6 -2 -5 -13z"/>
<path d="M12355 1690 c-3 -5 -1 -10 4 -10 6 0 11 5 11 10 0 6 -2 10 -4 10 -3
0 -8 -4 -11 -10z"/>
<path d="M12288 1673 c7 -3 16 -2 19 1 4 3 -2 6 -13 5 -11 0 -14 -3 -6 -6z"/>
<path d="M13110 1641 c0 -6 4 -13 10 -16 6 -3 7 1 4 9 -7 18 -14 21 -14 7z"/>
<path d="M12415 1629 c-4 -6 -4 -13 -1 -17 4 -3 -4 -12 -16 -19 l-23 -12 28
-1 c17 0 27 5 27 14 0 8 3 21 6 30 7 18 -11 22 -21 5z"/>
<path d="M12328 1603 c6 -2 18 -2 25 0 6 3 1 5 -13 5 -14 0 -19 -2 -12 -5z"/>
<path d="M14371 1294 c-19 -8 -42 -12 -53 -9 -12 5 -18 1 -18 -10 0 -9 -4 -13
-10 -10 -15 9 -34 -40 -26 -68 4 -16 12 -24 23 -23 19 1 21 -18 7 -63 -6 -20
-4 -23 9 -18 14 5 17 -1 17 -38 0 -24 -4 -47 -10 -50 -20 -12 -5 -104 21 -125
3 -3 8 -13 12 -22 8 -22 27 -24 27 -3 0 7 8 19 18 24 15 9 14 10 -6 11 -22 0
-23 3 -20 73 3 66 5 72 26 75 12 2 20 8 17 13 -4 5 -1 9 4 9 14 0 14 -17 1
-25 -5 -3 -10 -33 -10 -65 0 -59 0 -60 36 -75 46 -19 44 -20 44 11 0 19 -7 28
-31 36 -17 6 -27 13 -22 17 5 3 16 18 26 34 13 20 26 27 48 27 22 0 32 5 36
20 3 11 9 20 14 20 5 0 9 14 9 30 0 29 -1 30 -48 30 -26 0 -53 5 -59 11 -8 8
-13 8 -17 0 -16 -25 -116 1 -116 29 0 23 69 47 81 29 6 -9 9 -10 9 -2 0 8 20
11 63 10 53 -2 62 0 59 15 -1 9 2 19 8 23 21 13 9 27 -19 22 -23 -5 -28 -3
-27 11 1 11 -5 16 -16 14 -11 -2 -18 3 -18 13 0 19 -43 19 -89 -1z"/>
<path d="M14720 1301 c0 -6 17 -11 40 -11 l40 0 0 -45 0 -45 -39 0 c-22 0 -42
5 -44 13 -5 12 -7 6 -7 -20 0 -3 19 -7 43 -7 23 -1 79 -3 125 -4 75 -2 82 -4
82 -22 0 -18 -7 -20 -59 -20 -32 0 -87 -3 -122 -7 -54 -6 -59 -8 -34 -14 l30
-7 -27 -1 c-16 0 -28 -5 -28 -10 0 -13 54 -24 58 -12 5 16 22 13 22 -4 0 -22
77 -21 82 1 3 14 7 13 31 -6 15 -12 27 -26 27 -31 0 -5 -31 -9 -69 -9 -75 0
-87 -9 -75 -56 5 -20 12 -24 45 -24 l39 0 0 -80 0 -80 36 0 c20 0 49 10 68 23
31 21 32 24 28 80 -3 53 -2 57 18 57 20 0 22 3 15 38 -4 20 -11 39 -16 40 -5
2 -9 23 -9 47 0 58 -7 74 -31 68 -12 -4 -19 0 -19 9 0 23 12 29 28 15 13 -10
14 -7 8 23 -6 35 -30 62 -76 89 -32 19 -210 29 -210 12z"/>
<path d="M14658 1293 c12 -2 30 -2 40 0 9 3 -1 5 -23 4 -22 0 -30 -2 -17 -4z"/>
<path d="M14657 1224 c-8 -8 1 -24 14 -24 5 0 9 7 9 15 0 15 -12 20 -23 9z"/>
<path d="M14626 1212 c-4 -7 0 -19 8 -28 17 -17 19 -11 7 20 -5 14 -10 16 -15
8z"/>
<path d="M14685 1120 c-3 -5 -1 -10 4 -10 6 0 11 5 11 10 0 6 -2 10 -4 10 -3
0 -8 -4 -11 -10z"/>
<path d="M14570 1090 c0 -5 9 -10 21 -10 11 0 17 5 14 10 -3 6 -13 10 -21 10
-8 0 -14 -4 -14 -10z"/>
<path d="M14660 1050 c0 -5 -23 -7 -51 -5 l-51 4 7 -27 c9 -38 12 -38 36 -8
14 18 27 25 40 21 10 -4 26 -2 35 3 15 8 15 10 0 15 -9 4 -16 2 -16 -3z"/>
<path d="M14540 985 c0 -14 5 -25 10 -25 6 0 10 -18 10 -40 l0 -40 44 0 c38 0
43 2 39 19 -3 10 0 22 6 26 16 9 -12 35 -39 35 -23 0 -50 21 -50 39 0 6 -4 11
-10 11 -5 0 -10 -11 -10 -25z"/>
<path d="M14735 1001 c-6 -11 9 -23 19 -14 9 9 7 23 -3 23 -6 0 -12 -4 -16 -9z"/>
<path d="M14756 942 c-3 -6 -1 -14 5 -17 15 -10 25 3 12 16 -7 7 -13 7 -17 1z"/>
<path d="M15040 889 c0 -17 4 -28 10 -24 6 3 10 17 10 31 0 13 -4 24 -10 24
-5 0 -10 -14 -10 -31z"/>
<path d="M14433 840 c0 -25 2 -35 4 -22 2 12 2 32 0 45 -2 12 -4 2 -4 -23z"/>
<path d="M14726 834 c-9 -35 -4 -39 11 -8 6 13 8 26 3 29 -4 3 -11 -7 -14 -21z"/>
<path d="M13320 620 c-12 -8 -9 -10 13 -10 15 0 27 5 27 10 0 13 -20 13 -40 0z"/>
<path d="M13528 623 c7 -3 16 -2 19 1 4 3 -2 6 -13 5 -11 0 -14 -3 -6 -6z"/>
<path d="M13658 623 c7 -3 16 -2 19 1 4 3 -2 6 -13 5 -11 0 -14 -3 -6 -6z"/>
<path d="M13450 610 c-13 -9 -13 -10 0 -9 8 0 24 4 35 9 l20 9 -20 0 c-11 0
-27 -4 -35 -9z"/>
<path d="M13850 610 c20 -13 40 -13 40 0 0 6 -12 10 -27 10 -22 0 -25 -2 -13
-10z"/>
<path d="M13253 598 c-23 -11 -33 -36 -32 -83 l0 -30 12 25 11 25 4 -28 c5
-41 22 -22 22 25 0 23 3 38 6 35 11 -11 14 -76 3 -82 -12 -8 -12 -25 1 -25 6
0 10 6 10 13 1 15 56 77 70 77 5 0 10 7 10 15 0 8 -7 15 -16 15 -8 0 -13 -4
-9 -9 7 -13 -10 -22 -28 -15 -9 3 -13 12 -10 20 3 8 -1 14 -10 14 -8 0 -17 4
-19 9 -1 4 -13 4 -25 -1z m65 -60 c-6 -18 -28 -21 -28 -4 0 9 7 16 16 16 9 0
14 -5 12 -12z"/>
<path d="M13795 590 c3 -5 10 -10 16 -10 5 0 9 5 9 10 0 6 -7 10 -16 10 -8 0
-12 -4 -9 -10z"/>
<path d="M13917 586 c-4 -11 -1 -16 11 -17 14 0 14 -2 -3 -9 -16 -7 -17 -9 -3
-9 24 -1 33 18 16 36 -14 13 -16 13 -21 -1z"/>
<path d="M13870 545 c7 -8 17 -15 22 -15 5 0 3 7 -6 15 -8 8 -18 15 -22 15 -3
0 -1 -7 6 -15z"/>
<path d="M13972 540 c0 -14 2 -19 5 -12 2 6 2 18 0 25 -3 6 -5 1 -5 -13z"/>
<path d="M13930 511 c0 -16 12 -41 20 -41 4 0 5 11 2 25 -4 23 -22 36 -22 16z"/>
<path d="M13970 493 c0 -6 6 -14 13 -17 10 -5 10 -7 0 -12 -15 -7 -18 -34 -4
-34 19 0 23 42 7 58 -9 9 -16 11 -16 5z"/>
<path d="M13234 460 c2 -14 8 -51 11 -82 4 -32 11 -58 15 -58 13 0 -1 112 -17
140 l-14 25 5 -25z"/>
<path d="M13994 363 c2 -35 0 -65 -5 -69 -16 -10 -9 -23 11 -21 19 1 20 6 14
62 -9 84 -26 107 -20 28z"/>
<path d="M13260 274 c0 -18 26 -19 33 -1 3 8 -3 14 -14 14 -11 1 -19 -5 -19
-13z"/>
<path d="M13265 232 c3 -8 5 -21 5 -31 0 -10 8 -17 20 -18 23 -2 24 1 9 29 -8
15 -8 22 2 28 7 5 2 7 -15 7 -17 -1 -24 -6 -21 -15z"/>
<path d="M14021 219 c-1 -23 -6 -37 -13 -36 -41 1 -49 -3 -43 -24 7 -19 4 -21
-21 -16 -27 5 -27 4 -9 -9 45 -33 119 40 96 96 -9 23 -10 23 -10 -11z"/>
<path d="M13995 229 c-4 -6 -5 -12 -2 -15 2 -3 7 2 10 11 7 17 1 20 -8 4z"/>
<path d="M13940 210 c0 -5 4 -10 9 -10 6 0 13 5 16 10 3 6 -1 10 -9 10 -9 0
-16 -4 -16 -10z"/>
<path d="M13345 130 c3 -5 15 -10 26 -10 11 0 17 5 14 10 -3 6 -15 10 -26 10
-11 0 -17 -4 -14 -10z"/>
<path d="M13880 122 c-50 -5 -59 -20 -10 -17 22 1 43 5 47 9 10 9 1 11 -37 8z"/>
<path d="M13420 116 c0 -2 7 -6 15 -10 8 -3 15 -1 15 4 0 6 -7 10 -15 10 -8 0
-15 -2 -15 -4z"/>
</g>
</svg>
